<svg width="153.000000" height="36.000000" viewBox="0 0 153 36" fill="none" xmlns="http://www.w3.org/2000/svg" xmlns:xlink="http://www.w3.org/1999/xlink">
	<desc>
			Created with Pixso.
	</desc>
	<defs>
		<clipPath id="clip0_638">
			<rect id="bi:cloud-check" width="36.000000" height="36.000000" fill="white" fill-opacity="0"/>
		</clipPath>
	</defs>
	<rect id="bi:cloud-check" width="36.000000" height="36.000000" fill="#FFFFFF" fill-opacity="0"/>
	<g clip-path="url(#clip0_638)">
		<path id="Vector" d="M23.29 13.82C23.4 13.93 23.48 14.05 23.54 14.19C23.59 14.33 23.62 14.47 23.62 14.62C23.62 14.77 23.59 14.91 23.54 15.05C23.48 15.19 23.4 15.31 23.29 15.42L16.54 22.17C16.44 22.27 16.31 22.35 16.18 22.41C16.04 22.47 15.89 22.5 15.75 22.5C15.6 22.5 15.45 22.47 15.31 22.41C15.18 22.35 15.05 22.27 14.95 22.17L11.57 18.79C11.47 18.69 11.39 18.56 11.33 18.43C11.27 18.29 11.24 18.14 11.24 18C11.24 17.85 11.27 17.7 11.33 17.56C11.39 17.43 11.47 17.3 11.57 17.2C11.68 17.09 11.8 17.01 11.94 16.95C12.08 16.9 12.22 16.87 12.37 16.87C12.52 16.87 12.66 16.9 12.8 16.95C12.94 17.01 13.06 17.09 13.17 17.2L15.75 19.78L21.7 13.82C21.8 13.72 21.93 13.64 22.06 13.58C22.2 13.52 22.35 13.49 22.5 13.49C22.64 13.49 22.79 13.52 22.93 13.58C23.06 13.64 23.19 13.72 23.29 13.82Z" fill="#FFFFFF" fill-opacity="1.000000" fill-rule="evenodd"/>
		<path id="Vector" d="M9.91 7.51C12.16 5.58 15.03 4.5 18 4.5C24.05 4.5 29.07 9 29.62 14.8C33.2 15.3 36 18.3 36 21.98C36 26.03 32.62 29.25 28.54 29.25L8.5 29.25C3.84 29.25 0 25.57 0 20.96C0 16.99 2.84 13.71 6.61 12.88C6.94 10.93 8.18 9 9.91 7.51ZM11.38 9.22C9.67 10.69 8.78 12.46 8.78 13.84L8.78 14.85L7.78 14.96C4.64 15.31 2.25 17.89 2.25 20.96C2.25 24.26 5.01 27 8.5 27L28.54 27C31.45 27 33.75 24.72 33.75 21.98C33.75 19.25 31.45 16.97 28.54 16.97L27.42 16.97L27.42 15.85C27.42 10.85 23.23 6.75 18 6.75C15.56 6.75 13.22 7.63 11.38 9.22L11.38 9.22Z" fill="#6200EE" fill-opacity="1.000000" fill-rule="nonzero"/>
	</g>
	<path id="Books List" d="M62.73 24.5L57.13 24.5L57.13 11.4L62.38 11.4C65.26 11.4 66.72 12.8 66.72 14.76C66.72 16.3 65.72 17.27 64.36 17.57L64.36 17.7C65.84 17.77 67.23 18.94 67.23 20.88C67.23 22.96 65.67 24.5 62.73 24.5ZM95.52 24.5L92.8 24.5L92.8 11.4L95.52 11.4L95.52 18.4L95.66 18.4L98.81 14.68L101.94 14.68L98.29 18.93L102.12 24.5L98.93 24.5L96.25 20.54L95.52 21.37L95.52 24.5ZM59.9 13.64L59.9 16.88L61.95 16.88C63.08 16.88 63.93 16.26 63.93 15.22C63.93 14.27 63.23 13.64 62 13.64L59.9 13.64ZM78.82 19.63C78.82 22.65 76.97 24.69 73.99 24.69C71.01 24.69 69.16 22.65 69.16 19.63C69.16 16.58 71.01 14.55 73.99 14.55C76.97 14.55 78.82 16.58 78.82 19.63ZM90.44 19.63C90.44 22.65 88.59 24.69 85.61 24.69C82.63 24.69 80.78 22.65 80.78 19.63C80.78 16.58 82.63 14.55 85.61 14.55C88.59 14.55 90.44 16.58 90.44 19.63ZM107.83 14.55C110.31 14.55 111.77 15.67 112.01 17.48L109.52 17.63C109.38 17 108.82 16.48 107.88 16.48C107.03 16.48 106.37 16.86 106.37 17.45C106.37 17.93 106.71 18.24 107.62 18.43L109.4 18.8C111.3 19.18 112.23 20.03 112.24 21.45C112.23 23.39 110.41 24.69 107.86 24.69C105.26 24.69 103.67 23.53 103.41 21.65L106.09 21.51C106.25 22.31 106.9 22.72 107.87 22.72C108.82 22.72 109.45 22.31 109.47 21.73C109.45 21.23 109.07 20.92 108.21 20.75L106.51 20.41C104.59 20.03 103.67 19.08 103.67 17.6C103.67 15.71 105.32 14.55 107.83 14.55ZM71.93 19.6C71.93 21.32 72.63 22.58 74 22.58C75.35 22.58 76.06 21.32 76.06 19.6C76.06 17.89 75.35 16.62 74 16.62C72.63 16.62 71.93 17.89 71.93 19.6ZM83.55 19.6C83.55 21.32 84.25 22.58 85.63 22.58C86.97 22.58 87.68 21.32 87.68 19.6C87.68 17.89 86.97 16.62 85.63 16.62C84.25 16.62 83.55 17.89 83.55 19.6ZM59.9 18.76L59.9 22.23L62.16 22.23C63.7 22.23 64.38 21.59 64.38 20.6C64.38 19.52 63.55 18.76 62.22 18.76L59.9 18.76Z" fill="#6200EE" fill-opacity="1.000000" fill-rule="evenodd"/>
	<path id="Books List" d="M132.92 12.03C132.92 12.79 132.25 13.41 131.44 13.41C130.63 13.41 129.97 12.79 129.97 12.03C129.97 11.28 130.63 10.66 131.44 10.66C132.25 10.66 132.92 11.28 132.92 12.03ZM127.71 24.5L119.33 24.5L119.33 11.4L122.1 11.4L122.1 22.21L127.71 22.21L127.71 24.5ZM149.61 14.68L151.46 14.68L151.46 16.72L149.61 16.72L149.61 21.48C149.61 22.23 149.98 22.44 150.53 22.44C150.78 22.44 151.07 22.37 151.21 22.35L151.63 24.37C151.36 24.46 150.86 24.6 150.16 24.63C148.18 24.71 146.87 23.76 146.89 21.84L146.89 16.72L145.54 16.72L145.54 14.68L146.89 14.68L146.89 12.33L149.61 12.33L149.61 14.68ZM139.53 14.55C142.01 14.55 143.47 15.67 143.71 17.48L141.22 17.63C141.08 17 140.52 16.48 139.58 16.48C138.73 16.48 138.07 16.86 138.07 17.45C138.07 17.93 138.41 18.24 139.32 18.43L141.1 18.8C143 19.18 143.93 20.03 143.94 21.45C143.93 23.39 142.11 24.69 139.56 24.69C136.96 24.69 135.37 23.53 135.11 21.65L137.79 21.51C137.96 22.31 138.6 22.72 139.57 22.72C140.52 22.72 141.15 22.31 141.17 21.73C141.15 21.23 140.77 20.92 139.91 20.75L138.21 20.41C136.29 20.03 135.37 19.08 135.37 17.6C135.37 15.71 137.02 14.55 139.53 14.55ZM132.79 24.5L130.07 24.5L130.07 14.68L132.79 14.68L132.79 24.5Z" fill="#FFFFFF" fill-opacity="1.000000" fill-rule="evenodd"/>
</svg>
